<?xml version="1.0" encoding="UTF-8" standalone="no"?>
<svg
   xmlns:dc="http://purl.org/dc/elements/1.1/"
   xmlns:cc="http://creativecommons.org/ns#"
   xmlns:rdf="http://www.w3.org/1999/02/22-rdf-syntax-ns#"
   xmlns:svg="http://www.w3.org/2000/svg"
   xmlns="http://www.w3.org/2000/svg"
   xmlns:sodipodi="http://sodipodi.sourceforge.net/DTD/sodipodi-0.dtd"
   xmlns:inkscape="http://www.inkscape.org/namespaces/inkscape"
   width="74.759987mm"
   height="13.435551mm"
   viewBox="0 0 74.759987 13.435551"
   version="1.1"
   id="svg8"
   inkscape:version="1.0.1 (c497b03c, 2020-09-10)"
   sodipodi:docname="logo.svg">
  <defs
     id="defs2" />
  <sodipodi:namedview
     id="base"
     pagecolor="#ffffff"
     bordercolor="#666666"
     borderopacity="1.0"
     inkscape:pageopacity="0.0"
     inkscape:pageshadow="2"
     inkscape:zoom="2.8172826"
     inkscape:cx="133.80344"
     inkscape:cy="44.856346"
     inkscape:document-units="mm"
     inkscape:current-layer="text839"
     inkscape:document-rotation="0"
     showgrid="false"
     inkscape:window-width="1440"
     inkscape:window-height="756"
     inkscape:window-x="0"
     inkscape:window-y="25"
     inkscape:window-maximized="1" />
  <metadata
     id="metadata5">
    <rdf:RDF>
      <cc:Work
         rdf:about="">
        <dc:format>image/svg+xml</dc:format>
        <dc:type
           rdf:resource="http://purl.org/dc/dcmitype/StillImage" />
        <dc:title></dc:title>
      </cc:Work>
    </rdf:RDF>
  </metadata>
  <g
     inkscape:label="Calque 1"
     inkscape:groupmode="layer"
     id="layer1"
     style="display:inline"
     transform="translate(-67.196961,-76.333433)">
    <g
       aria-label="Blockly Trader"
       id="text835"
       style="font-size:10.5833px;line-height:1.25;font-family:'One Slice';-inkscape-font-specification:'One Slice';fill:#ffffff;fill-opacity:1;stroke:#6565f6;stroke-width:3.265;stroke-linejoin:round;stroke-miterlimit:4;stroke-dasharray:none;stroke-opacity:0.96;paint-order:stroke fill markers">
      <path
         d="m 71.337703,86.273823 q -0.634998,0 -1.301746,-0.05292 -0.666748,-0.05292 -1.206496,-0.169333 l 1.693328,-7.090811 q 0.603248,-0.116416 1.259412,-0.158749 0.666748,-0.04233 1.21708,-0.04233 0.634998,0 1.09008,0.137582 0.465665,0.127 0.751414,0.349249 0.296332,0.22225 0.433915,0.529165 0.148166,0.296333 0.148166,0.634998 0,0.232833 -0.05292,0.486832 -0.04233,0.253999 -0.1905,0.507998 -0.137582,0.243416 -0.391582,0.465666 -0.243416,0.222249 -0.645581,0.402165 0.476249,0.211666 0.698498,0.582082 0.222249,0.359832 0.222249,0.80433 0,0.507999 -0.201083,0.984247 -0.201082,0.465665 -0.645581,0.836081 -0.444498,0.359832 -1.153579,0.582081 -0.709082,0.211666 -1.725078,0.211666 z m -0.148167,-3.301989 -0.455081,1.904994 q 0.169332,0.03175 0.423332,0.05292 0.264582,0.01058 0.486831,0.01058 0.317499,0 0.624415,-0.04233 0.317499,-0.05292 0.560915,-0.179916 0.253999,-0.126999 0.412749,-0.349249 0.158749,-0.222249 0.158749,-0.571498 0,-0.148166 -0.0635,-0.296332 Q 73.28503,83.352833 73.15803,83.236416 73.031031,83.12 72.819365,83.045917 q -0.201083,-0.07408 -0.486832,-0.07408 z m 0.306916,-1.238246 h 1.037164 q 0.634998,0 0.941913,-0.275166 0.317499,-0.275166 0.317499,-0.656165 0,-0.201082 -0.09525,-0.338665 -0.08467,-0.148166 -0.232833,-0.232833 -0.148166,-0.08467 -0.338666,-0.116416 -0.190499,-0.04233 -0.391582,-0.04233 -0.222249,0 -0.476248,0.02117 -0.253999,0.01058 -0.380999,0.03175 z"
         style="font-style:normal;font-variant:normal;font-weight:normal;font-stretch:normal;font-family:Ubuntu;-inkscape-font-specification:Ubuntu;fill:#ffffff;fill-opacity:1;stroke:#6565f6;stroke-width:3.265;stroke-linejoin:round;stroke-miterlimit:4;stroke-dasharray:none;stroke-opacity:0.96;paint-order:stroke fill markers"
         id="path1493" />
      <path
         d="m 78.049664,86.284407 q -0.751414,0 -1.185329,-0.1905 -0.423332,-0.201082 -0.613831,-0.539748 -0.179917,-0.338666 -0.179917,-0.772581 0.01058,-0.444499 0.127,-0.941914 l 1.344079,-5.619732 1.640412,-0.253999 -1.471079,6.095981 q -0.04233,0.190499 -0.05292,0.349249 0,0.158749 0.0635,0.285749 0.0635,0.116416 0.211666,0.190499 0.15875,0.07408 0.433915,0.09525 z"
         style="font-style:normal;font-variant:normal;font-weight:normal;font-stretch:normal;font-family:Ubuntu;-inkscape-font-specification:Ubuntu;fill:#ffffff;fill-opacity:1;stroke:#6565f6;stroke-width:3.265;stroke-linejoin:round;stroke-miterlimit:4;stroke-dasharray:none;stroke-opacity:0.96;paint-order:stroke fill markers"
         id="path1495" />
      <path
         d="m 81.589282,86.32674 q -0.560915,0 -0.973663,-0.169333 -0.412749,-0.169333 -0.687915,-0.476248 -0.264582,-0.306916 -0.402165,-0.719665 -0.137583,-0.423332 -0.137583,-0.93133 0,-0.634998 0.201083,-1.269996 0.211666,-0.634998 0.613831,-1.142997 0.402166,-0.507998 0.984247,-0.825497 0.582081,-0.328082 1.333496,-0.328082 0.550331,0 0.96308,0.169333 0.423332,0.169332 0.687914,0.476248 0.275166,0.306916 0.412749,0.730248 0.137583,0.412748 0.137583,0.920747 0,0.634998 -0.201083,1.269996 -0.201082,0.634998 -0.592664,1.142996 -0.391582,0.507999 -0.984247,0.836081 -0.582082,0.317499 -1.354663,0.317499 z m 0.783165,-4.529652 q -0.349249,0 -0.613832,0.201082 -0.264582,0.201083 -0.444498,0.507999 -0.179917,0.306915 -0.275166,0.677331 -0.08467,0.359832 -0.08467,0.687914 0,0.539749 0.169333,0.836081 0.169333,0.285749 0.613832,0.285749 0.349248,0 0.613831,-0.201083 0.264582,-0.201082 0.444499,-0.507998 0.179916,-0.306916 0.264582,-0.666748 0.09525,-0.370415 0.09525,-0.698498 0,-0.539748 -0.169333,-0.825497 -0.169333,-0.296332 -0.613831,-0.296332 z"
         style="font-style:normal;font-variant:normal;font-weight:normal;font-stretch:normal;font-family:Ubuntu;-inkscape-font-specification:Ubuntu;fill:#ffffff;fill-opacity:1;stroke:#6565f6;stroke-width:3.265;stroke-linejoin:round;stroke-miterlimit:4;stroke-dasharray:none;stroke-opacity:0.96;paint-order:stroke fill markers"
         id="path1497" />
      <path
         d="m 85.465085,83.956081 q 0,-0.719665 0.232833,-1.354663 0.232833,-0.634998 0.666748,-1.111246 0.433915,-0.476249 1.047747,-0.751414 0.624414,-0.275166 1.386412,-0.275166 0.476248,0 0.846664,0.09525 0.380999,0.08467 0.687914,0.232832 l -0.539748,1.227663 q -0.211666,-0.08467 -0.444499,-0.148166 -0.222249,-0.07408 -0.550331,-0.07408 -0.793748,0 -1.24883,0.539748 -0.455081,0.529165 -0.455081,1.449912 0,0.539748 0.232832,0.878414 0.232833,0.328082 0.857247,0.328082 0.306916,0 0.592665,-0.0635 0.285749,-0.0635 0.507999,-0.158749 l 0.116416,1.259412 q -0.296333,0.116417 -0.656165,0.201083 -0.349249,0.09525 -0.857247,0.09525 -0.656165,0 -1.111246,-0.1905 -0.455082,-0.190499 -0.751415,-0.507998 -0.296332,-0.328082 -0.433915,-0.761998 -0.127,-0.433915 -0.127,-0.910163 z"
         style="font-style:normal;font-variant:normal;font-weight:normal;font-stretch:normal;font-family:Ubuntu;-inkscape-font-specification:Ubuntu;fill:#ffffff;fill-opacity:1;stroke:#6565f6;stroke-width:3.265;stroke-linejoin:round;stroke-miterlimit:4;stroke-dasharray:none;stroke-opacity:0.96;paint-order:stroke fill markers"
         id="path1499" />
      <path
         d="m 92.656106,82.622585 q 0.634998,-0.507998 1.195913,-1.037163 0.560915,-0.529165 0.96308,-0.973664 h 1.777994 q -0.592665,0.656165 -1.238246,1.291163 -0.634998,0.624414 -1.460495,1.333495 0.222249,0.275166 0.444498,0.634998 0.232833,0.359832 0.433916,0.751415 0.211666,0.391582 0.380999,0.793747 0.179916,0.402165 0.296332,0.761998 h -1.756828 q -0.09525,-0.275166 -0.243416,-0.603248 -0.137583,-0.328083 -0.317499,-0.645582 -0.169333,-0.328082 -0.359832,-0.634998 -0.190499,-0.306915 -0.380999,-0.550331 l -0.592664,2.434159 H 90.23253 l 1.904994,-7.958642 1.640412,-0.253999 z"
         style="font-style:normal;font-variant:normal;font-weight:normal;font-stretch:normal;font-family:Ubuntu;-inkscape-font-specification:Ubuntu;fill:#ffffff;fill-opacity:1;stroke:#6565f6;stroke-width:3.265;stroke-linejoin:round;stroke-miterlimit:4;stroke-dasharray:none;stroke-opacity:0.96;paint-order:stroke fill markers"
         id="path1501" />
      <path
         d="m 98.472126,86.284407 q -0.751415,0 -1.18533,-0.1905 -0.423332,-0.201082 -0.613831,-0.539748 -0.179917,-0.338666 -0.179917,-0.772581 0.01058,-0.444499 0.127,-0.941914 l 1.344079,-5.619732 1.640412,-0.253999 -1.471079,6.095981 q -0.04233,0.190499 -0.05292,0.349249 0,0.158749 0.0635,0.285749 0.0635,0.116416 0.211666,0.190499 0.15875,0.07408 0.433915,0.09525 z"
         style="font-style:normal;font-variant:normal;font-weight:normal;font-stretch:normal;font-family:Ubuntu;-inkscape-font-specification:Ubuntu;fill:#ffffff;fill-opacity:1;stroke:#6565f6;stroke-width:3.265;stroke-linejoin:round;stroke-miterlimit:4;stroke-dasharray:none;stroke-opacity:0.96;paint-order:stroke fill markers"
         id="path1503" />
      <path
         d="m 105.44073,80.611758 q -0.29633,0.804331 -0.60325,1.502829 -0.29633,0.698497 -0.62441,1.333495 -0.32808,0.624415 -0.67733,1.195913 -0.34925,0.571498 -0.74083,1.132413 -0.28575,0.412749 -0.59267,0.836081 -0.30691,0.423332 -0.68791,0.761997 -0.37042,0.338666 -0.83608,0.550332 -0.45508,0.211666 -1.058333,0.211666 -0.370415,0 -0.634998,-0.07408 -0.264582,-0.0635 -0.497415,-0.179916 l 0.476249,-1.238246 q 0.211666,0.08467 0.380998,0.126999 0.169333,0.05292 0.412749,0.05292 0.37042,0 0.6985,-0.243416 0.33866,-0.232833 0.56091,-0.634998 -0.27516,-1.05833 -0.508,-2.370659 -0.22224,-1.312329 -0.30691,-2.963324 h 1.61924 q 0.0106,0.412749 0.0423,0.910164 0.0318,0.497415 0.0741,1.005413 0.0423,0.497415 0.0953,0.973664 0.0529,0.476248 0.11642,0.857247 0.50799,-0.761998 0.88899,-1.693328 0.39159,-0.93133 0.73025,-2.05316 z"
         style="font-style:normal;font-variant:normal;font-weight:normal;font-stretch:normal;font-family:Ubuntu;-inkscape-font-specification:Ubuntu;fill:#ffffff;fill-opacity:1;stroke:#6565f6;stroke-width:3.265;stroke-linejoin:round;stroke-miterlimit:4;stroke-dasharray:none;stroke-opacity:0.96;paint-order:stroke fill markers"
         id="path1505" />
      <path
         d="m 114.738,78.844347 -0.33867,1.386412 h -2.14841 l -1.42874,5.947815 h -1.651 l 1.42875,-5.947815 h -2.14841 l 0.33866,-1.386412 z"
         style="font-style:normal;font-variant:normal;font-weight:normal;font-stretch:normal;font-family:Ubuntu;-inkscape-font-specification:Ubuntu;fill:#ffffff;fill-opacity:1;stroke:#6565f6;stroke-width:3.265;stroke-linejoin:round;stroke-miterlimit:4;stroke-dasharray:none;stroke-opacity:0.96;paint-order:stroke fill markers"
         id="path1507" />
      <path
         d="m 117.45195,81.96642 q -0.21166,-0.05292 -0.42333,-0.09525 -0.20108,-0.05292 -0.60325,-0.05292 -0.14816,0 -0.32808,0.03175 -0.17992,0.02117 -0.29633,0.05292 l -1.02658,4.275653 h -1.57691 l 1.26999,-5.270484 q 0.45508,-0.148166 1.016,-0.275165 0.5715,-0.137583 1.28058,-0.137583 0.26458,0 0.58208,0.05292 0.32808,0.04233 0.5715,0.148166 z"
         style="font-style:normal;font-variant:normal;font-weight:normal;font-stretch:normal;font-family:Ubuntu;-inkscape-font-specification:Ubuntu;fill:#ffffff;fill-opacity:1;stroke:#6565f6;stroke-width:3.265;stroke-linejoin:round;stroke-miterlimit:4;stroke-dasharray:none;stroke-opacity:0.96;paint-order:stroke fill markers"
         id="path1509" />
      <path
         d="m 122.75584,83.776165 q -0.14817,0.603248 -0.0847,1.217079 0.0635,0.603248 0.24342,1.079497 l -1.40758,0.201082 q -0.0635,-0.126999 -0.11642,-0.243416 -0.0529,-0.116416 -0.10583,-0.264582 -0.29633,0.243416 -0.65617,0.402165 -0.35983,0.15875 -0.80433,0.15875 -0.52916,0 -0.91016,-0.179916 -0.37042,-0.1905 -0.61383,-0.497415 -0.23283,-0.317499 -0.33867,-0.730248 -0.10583,-0.423332 -0.10583,-0.899581 0,-0.730247 0.254,-1.375828 0.26458,-0.645582 0.71966,-1.12183 0.46567,-0.486832 1.09008,-0.761998 0.62442,-0.275166 1.35467,-0.275166 0.0952,0 0.32808,0.01058 0.24341,0.01058 0.55033,0.05292 0.30691,0.03175 0.64558,0.116416 0.33867,0.08467 0.64558,0.232833 z m -1.10067,-1.947328 q -0.13758,-0.02117 -0.254,-0.03175 -0.10583,-0.01058 -0.26458,-0.01058 -0.35983,0 -0.67733,0.179916 -0.30691,0.179916 -0.53975,0.476249 -0.23283,0.285749 -0.37041,0.666748 -0.127,0.380999 -0.127,0.793747 0,0.507999 0.16933,0.804331 0.16933,0.296332 0.62442,0.296332 0.24341,0 0.43391,-0.09525 0.20108,-0.09525 0.42333,-0.317499 0.0212,-0.264583 0.0635,-0.550332 0.0529,-0.296332 0.10584,-0.539748 z"
         style="font-style:normal;font-variant:normal;font-weight:normal;font-stretch:normal;font-family:Ubuntu;-inkscape-font-specification:Ubuntu;fill:#ffffff;fill-opacity:1;stroke:#6565f6;stroke-width:3.265;stroke-linejoin:round;stroke-miterlimit:4;stroke-dasharray:none;stroke-opacity:0.96;paint-order:stroke fill markers"
         id="path1511" />
      <path
         d="m 126.05667,86.32674 q -0.52917,0 -0.91017,-0.179916 -0.37041,-0.179916 -0.61383,-0.486832 -0.23283,-0.317499 -0.34925,-0.730248 -0.10583,-0.423332 -0.10583,-0.89958 0,-0.719665 0.254,-1.354663 0.26458,-0.645581 0.71966,-1.121829 0.45509,-0.476249 1.0795,-0.751415 0.62442,-0.275165 1.36525,-0.275165 0.1905,0 0.34925,0.02117 0.16933,0.02117 0.33866,0.0635 l 0.5715,-2.391826 1.64041,-0.253999 -1.397,5.810232 q -0.14816,0.603248 -0.0847,1.217079 0.0635,0.603248 0.24341,1.079497 L 127.75,86.273823 q -0.0635,-0.126999 -0.11642,-0.243416 -0.0529,-0.116416 -0.10583,-0.264582 -0.29634,0.243416 -0.66675,0.402165 -0.35983,0.15875 -0.80433,0.15875 z m 1.82032,-4.455569 q -0.0635,-0.01058 -0.11641,-0.02117 -0.0423,-0.01058 -0.0953,-0.01058 -0.0423,-0.01058 -0.11642,-0.01058 -0.0741,0 -0.1905,0 -0.37041,0 -0.68791,0.179917 -0.3175,0.169332 -0.55033,0.465665 -0.22225,0.296332 -0.34925,0.677331 -0.127,0.370415 -0.127,0.761997 0,0.507999 0.16933,0.804331 0.17992,0.285749 0.635,0.285749 0.24342,0 0.4445,-0.09525 0.20108,-0.09525 0.42333,-0.317499 0.0212,-0.264583 0.0635,-0.550332 0.0529,-0.296332 0.10583,-0.539748 z"
         style="font-style:normal;font-variant:normal;font-weight:normal;font-stretch:normal;font-family:Ubuntu;-inkscape-font-specification:Ubuntu;fill:#ffffff;fill-opacity:1;stroke:#6565f6;stroke-width:3.265;stroke-linejoin:round;stroke-miterlimit:4;stroke-dasharray:none;stroke-opacity:0.96;paint-order:stroke fill markers"
         id="path1513" />
      <path
         d="m 130.32009,83.998414 q 0,-0.677331 0.23283,-1.312329 0.24342,-0.634998 0.67733,-1.12183 0.43392,-0.497415 1.04775,-0.793748 0.62441,-0.306915 1.37583,-0.306915 0.37041,0 0.68791,0.105833 0.3175,0.105833 0.55033,0.306915 0.24342,0.201083 0.37042,0.497416 0.13758,0.285749 0.13758,0.656164 0,0.592665 -0.26458,1.005414 -0.26458,0.412748 -0.74083,0.677331 -0.46567,0.253999 -1.11125,0.370415 -0.64558,0.116417 -1.40758,0.116417 0.0741,0.444498 0.3175,0.634998 0.254,0.179916 0.79375,0.179916 0.33866,0 0.68791,-0.05292 0.34925,-0.0635 0.65617,-0.179916 l 0.11641,1.238246 q -0.29633,0.116416 -0.76199,0.211666 -0.45509,0.09525 -0.99483,0.09525 -0.65617,0 -1.11125,-0.179916 -0.4445,-0.1905 -0.73025,-0.507999 -0.27516,-0.317499 -0.40216,-0.740831 -0.127,-0.423332 -0.127,-0.89958 z m 3.07974,-2.285993 q -0.53975,0 -0.9525,0.391582 -0.40217,0.380999 -0.52916,1.015997 0.65616,-0.02117 1.05833,-0.105833 0.40216,-0.09525 0.62441,-0.222249 0.22225,-0.127 0.29633,-0.275166 0.0741,-0.148166 0.0741,-0.296332 0,-0.507999 -0.5715,-0.507999 z"
         style="font-style:normal;font-variant:normal;font-weight:normal;font-stretch:normal;font-family:Ubuntu;-inkscape-font-specification:Ubuntu;fill:#ffffff;fill-opacity:1;stroke:#6565f6;stroke-width:3.265;stroke-linejoin:round;stroke-miterlimit:4;stroke-dasharray:none;stroke-opacity:0.96;paint-order:stroke fill markers"
         id="path1515" />
      <path
         d="m 139.85878,81.96642 q -0.21166,-0.05292 -0.42333,-0.09525 -0.20108,-0.05292 -0.60325,-0.05292 -0.14816,0 -0.32808,0.03175 -0.17992,0.02117 -0.29633,0.05292 l -1.02658,4.275653 h -1.57691 l 1.26999,-5.270484 q 0.45508,-0.148166 1.016,-0.275165 0.5715,-0.137583 1.28058,-0.137583 0.26458,0 0.58208,0.05292 0.32808,0.04233 0.5715,0.148166 z"
         style="font-style:normal;font-variant:normal;font-weight:normal;font-stretch:normal;font-family:Ubuntu;-inkscape-font-specification:Ubuntu;fill:#ffffff;fill-opacity:1;stroke:#6565f6;stroke-width:3.265;stroke-linejoin:round;stroke-miterlimit:4;stroke-dasharray:none;stroke-opacity:0.96;paint-order:stroke fill markers"
         id="path1517" />
    </g>
  </g>
  <g
     inkscape:label="Copie de Calque 1"
     inkscape:groupmode="layer"
     id="g841"
     style="display:inline"
     transform="translate(-67.196961,-76.333433)">
    <g
       aria-label="Blockly Trader"
       id="text839"
       style="font-size:10.5833px;line-height:1.25;font-family:'One Slice';-inkscape-font-specification:'One Slice';fill:#ffffff;fill-opacity:1;stroke-width:0.264583">
      <path
         d="m 71.337703,86.273823 q -0.634998,0 -1.301746,-0.05292 -0.666748,-0.05292 -1.206496,-0.169333 l 1.693328,-7.090811 q 0.603248,-0.116416 1.259412,-0.158749 0.666748,-0.04233 1.21708,-0.04233 0.634998,0 1.09008,0.137582 0.465665,0.127 0.751414,0.349249 0.296332,0.22225 0.433915,0.529165 0.148166,0.296333 0.148166,0.634998 0,0.232833 -0.05292,0.486832 -0.04233,0.253999 -0.1905,0.507998 -0.137582,0.243416 -0.391582,0.465666 -0.243416,0.222249 -0.645581,0.402165 0.476249,0.211666 0.698498,0.582082 0.222249,0.359832 0.222249,0.80433 0,0.507999 -0.201083,0.984247 -0.201082,0.465665 -0.645581,0.836081 -0.444498,0.359832 -1.153579,0.582081 -0.709082,0.211666 -1.725078,0.211666 z m -0.148167,-3.301989 -0.455081,1.904994 q 0.169332,0.03175 0.423332,0.05292 0.264582,0.01058 0.486831,0.01058 0.317499,0 0.624415,-0.04233 0.317499,-0.05292 0.560915,-0.179916 0.253999,-0.126999 0.412749,-0.349249 0.158749,-0.222249 0.158749,-0.571498 0,-0.148166 -0.0635,-0.296332 -0.05292,-0.14817 -0.179916,-0.264587 -0.126999,-0.116416 -0.338665,-0.190499 -0.201083,-0.07408 -0.486832,-0.07408 z m 0.306916,-1.238246 h 1.037164 q 0.634998,0 0.941913,-0.275166 0.317499,-0.275166 0.317499,-0.656165 0,-0.201082 -0.09525,-0.338665 -0.08467,-0.148166 -0.232833,-0.232833 -0.148166,-0.08467 -0.338666,-0.116416 -0.190499,-0.04233 -0.391582,-0.04233 -0.222249,0 -0.476248,0.02117 -0.253999,0.01058 -0.380999,0.03175 z"
         style="font-style:normal;font-variant:normal;font-weight:normal;font-stretch:normal;font-family:Ubuntu;-inkscape-font-specification:Ubuntu;fill:#ffffff;fill-opacity:1;stroke-width:0.264583"
         id="path1466" />
      <path
         d="m 78.049664,86.284407 q -0.751414,0 -1.185329,-0.1905 -0.423332,-0.201082 -0.613831,-0.539748 -0.179917,-0.338666 -0.179917,-0.772581 0.01058,-0.444499 0.127,-0.941914 l 1.344079,-5.619732 1.640412,-0.253999 -1.471079,6.095981 q -0.04233,0.190499 -0.05292,0.349249 0,0.158749 0.0635,0.285749 0.0635,0.116416 0.211666,0.190499 0.15875,0.07408 0.433915,0.09525 z"
         style="font-style:normal;font-variant:normal;font-weight:normal;font-stretch:normal;font-family:Ubuntu;-inkscape-font-specification:Ubuntu;fill:#ffffff;fill-opacity:1;stroke-width:0.264583"
         id="path1468" />
      <path
         d="m 81.589282,86.32674 q -0.560915,0 -0.973663,-0.169333 -0.412749,-0.169333 -0.687915,-0.476248 -0.264582,-0.306916 -0.402165,-0.719665 -0.137583,-0.423332 -0.137583,-0.93133 0,-0.634998 0.201083,-1.269996 0.211666,-0.634998 0.613831,-1.142997 0.402166,-0.507998 0.984247,-0.825497 0.582081,-0.328082 1.333496,-0.328082 0.550331,0 0.96308,0.169333 0.423332,0.169332 0.687914,0.476248 0.275166,0.306916 0.412749,0.730248 0.137583,0.412748 0.137583,0.920747 0,0.634998 -0.201083,1.269996 -0.201082,0.634998 -0.592664,1.142996 -0.391582,0.507999 -0.984247,0.836081 -0.582082,0.317499 -1.354663,0.317499 z m 0.783165,-4.529652 q -0.349249,0 -0.613832,0.201082 -0.264582,0.201083 -0.444498,0.507999 -0.179917,0.306915 -0.275166,0.677331 -0.08467,0.359832 -0.08467,0.687914 0,0.539749 0.169333,0.836081 0.169333,0.285749 0.613832,0.285749 0.349248,0 0.613831,-0.201083 0.264582,-0.201082 0.444499,-0.507998 0.179916,-0.306916 0.264582,-0.666748 0.09525,-0.370415 0.09525,-0.698498 0,-0.539748 -0.169333,-0.825497 -0.169333,-0.296332 -0.613831,-0.296332 z"
         style="font-style:normal;font-variant:normal;font-weight:normal;font-stretch:normal;font-family:Ubuntu;-inkscape-font-specification:Ubuntu;fill:#ffffff;fill-opacity:1;stroke-width:0.264583"
         id="path1470" />
      <path
         d="m 85.465085,83.956081 q 0,-0.719665 0.232833,-1.354663 0.232833,-0.634998 0.666748,-1.111246 0.433915,-0.476249 1.047747,-0.751414 0.624414,-0.275166 1.386412,-0.275166 0.476248,0 0.846664,0.09525 0.380999,0.08467 0.687914,0.232832 l -0.539748,1.227663 q -0.211666,-0.08467 -0.444499,-0.148166 -0.222249,-0.07408 -0.550331,-0.07408 -0.793748,0 -1.24883,0.539748 -0.455081,0.529165 -0.455081,1.449912 0,0.539748 0.232832,0.878414 0.232833,0.328082 0.857247,0.328082 0.306916,0 0.592665,-0.0635 0.285749,-0.0635 0.507999,-0.158749 l 0.116416,1.259412 q -0.296333,0.116417 -0.656165,0.201083 -0.349249,0.09525 -0.857247,0.09525 -0.656165,0 -1.111246,-0.1905 -0.455082,-0.190499 -0.751415,-0.507998 -0.296332,-0.328082 -0.433915,-0.761998 -0.127,-0.433915 -0.127,-0.910163 z"
         style="font-style:normal;font-variant:normal;font-weight:normal;font-stretch:normal;font-family:Ubuntu;-inkscape-font-specification:Ubuntu;fill:#ffffff;fill-opacity:1;stroke-width:0.264583"
         id="path1472" />
      <path
         d="m 92.656106,82.622585 q 0.634998,-0.507998 1.195913,-1.037163 0.560915,-0.529165 0.96308,-0.973664 h 1.777994 q -0.592665,0.656165 -1.238246,1.291163 -0.634998,0.624414 -1.460495,1.333495 0.222249,0.275166 0.444498,0.634998 0.232833,0.359832 0.433916,0.751415 0.211666,0.391582 0.380999,0.793747 0.179916,0.402165 0.296332,0.761998 h -1.756828 q -0.09525,-0.275166 -0.243416,-0.603248 -0.137583,-0.328083 -0.317499,-0.645582 -0.169333,-0.328082 -0.359832,-0.634998 -0.190499,-0.306915 -0.380999,-0.550331 l -0.592664,2.434159 H 90.23253 l 1.904994,-7.958642 1.640412,-0.253999 z"
         style="font-style:normal;font-variant:normal;font-weight:normal;font-stretch:normal;font-family:Ubuntu;-inkscape-font-specification:Ubuntu;fill:#ffffff;fill-opacity:1;stroke-width:0.264583"
         id="path1474" />
      <path
         d="m 98.472126,86.284407 q -0.751415,0 -1.18533,-0.1905 -0.423332,-0.201082 -0.613831,-0.539748 -0.179917,-0.338666 -0.179917,-0.772581 0.01058,-0.444499 0.127,-0.941914 l 1.344079,-5.619732 1.640412,-0.253999 -1.471079,6.095981 q -0.04233,0.190499 -0.05292,0.349249 0,0.158749 0.0635,0.285749 0.0635,0.116416 0.211666,0.190499 0.15875,0.07408 0.433915,0.09525 z"
         style="font-style:normal;font-variant:normal;font-weight:normal;font-stretch:normal;font-family:Ubuntu;-inkscape-font-specification:Ubuntu;fill:#ffffff;fill-opacity:1;stroke-width:0.264583"
         id="path1476" />
      <path
         d="m 105.44073,80.611758 q -0.29633,0.804331 -0.60325,1.502829 -0.29633,0.698497 -0.62441,1.333495 -0.32808,0.624415 -0.67733,1.195913 -0.34925,0.571498 -0.74083,1.132413 -0.28575,0.412749 -0.59267,0.836081 -0.30691,0.423332 -0.68791,0.761997 -0.37042,0.338666 -0.83608,0.550332 -0.45508,0.211666 -1.058333,0.211666 -0.370415,0 -0.634998,-0.07408 -0.264582,-0.0635 -0.497415,-0.179916 l 0.476249,-1.238246 q 0.211666,0.08467 0.380998,0.126999 0.169333,0.05292 0.412749,0.05292 0.37042,0 0.6985,-0.243416 0.33866,-0.232833 0.56091,-0.634998 -0.27516,-1.05833 -0.508,-2.370659 -0.22224,-1.312329 -0.30691,-2.963324 h 1.61924 q 0.0106,0.412749 0.0423,0.910164 0.0318,0.497415 0.0741,1.005413 0.0423,0.497415 0.0953,0.973664 0.0529,0.476248 0.11642,0.857247 0.50799,-0.761998 0.88899,-1.693328 0.39159,-0.93133 0.73025,-2.05316 z"
         style="font-style:normal;font-variant:normal;font-weight:normal;font-stretch:normal;font-family:Ubuntu;-inkscape-font-specification:Ubuntu;fill:#ffffff;fill-opacity:1;stroke-width:0.264583"
         id="path1478" />
      <path
         d="m 114.738,78.844347 -0.33867,1.386412 h -2.14841 l -1.42874,5.947815 h -1.651 l 1.42875,-5.947815 h -2.14841 l 0.33866,-1.386412 z"
         style="font-style:normal;font-variant:normal;font-weight:normal;font-stretch:normal;font-family:Ubuntu;-inkscape-font-specification:Ubuntu;fill:#ffffff;fill-opacity:1;stroke-width:0.264583"
         id="path1480" />
      <path
         d="m 117.45195,81.96642 q -0.21166,-0.05292 -0.42333,-0.09525 -0.20108,-0.05292 -0.60325,-0.05292 -0.14816,0 -0.32808,0.03175 -0.17992,0.02117 -0.29633,0.05292 l -1.02658,4.275653 h -1.57691 l 1.26999,-5.270484 q 0.45508,-0.148166 1.016,-0.275165 0.5715,-0.137583 1.28058,-0.137583 0.26458,0 0.58208,0.05292 0.32808,0.04233 0.5715,0.148166 z"
         style="font-style:normal;font-variant:normal;font-weight:normal;font-stretch:normal;font-family:Ubuntu;-inkscape-font-specification:Ubuntu;fill:#ffffff;fill-opacity:1;stroke-width:0.264583"
         id="path1482" />
      <path
         d="m 122.75584,83.776165 q -0.14817,0.603248 -0.0847,1.217079 0.0635,0.603248 0.24342,1.079497 l -1.40758,0.201082 q -0.0635,-0.126999 -0.11642,-0.243416 -0.0529,-0.116416 -0.10583,-0.264582 -0.29633,0.243416 -0.65617,0.402165 -0.35983,0.15875 -0.80433,0.15875 -0.52916,0 -0.91016,-0.179916 -0.37042,-0.1905 -0.61383,-0.497415 -0.23283,-0.317499 -0.33867,-0.730248 -0.10583,-0.423332 -0.10583,-0.899581 0,-0.730247 0.254,-1.375828 0.26458,-0.645582 0.71966,-1.12183 0.46567,-0.486832 1.09008,-0.761998 0.62442,-0.275166 1.35467,-0.275166 0.0952,0 0.32808,0.01058 0.24341,0.01058 0.55033,0.05292 0.30691,0.03175 0.64558,0.116416 0.33867,0.08467 0.64558,0.232833 z m -1.10067,-1.947328 q -0.13758,-0.02117 -0.254,-0.03175 -0.10583,-0.01058 -0.26458,-0.01058 -0.35983,0 -0.67733,0.179916 -0.30691,0.179916 -0.53975,0.476249 -0.23283,0.285749 -0.37041,0.666748 -0.127,0.380999 -0.127,0.793747 0,0.507999 0.16933,0.804331 0.16933,0.296332 0.62442,0.296332 0.24341,0 0.43391,-0.09525 0.20108,-0.09525 0.42333,-0.317499 0.0212,-0.264583 0.0635,-0.550332 0.0529,-0.296332 0.10584,-0.539748 z"
         style="font-style:normal;font-variant:normal;font-weight:normal;font-stretch:normal;font-family:Ubuntu;-inkscape-font-specification:Ubuntu;fill:#ffffff;fill-opacity:1;stroke-width:0.264583"
         id="path1484" />
      <path
         d="m 126.05667,86.32674 q -0.52917,0 -0.91017,-0.179916 -0.37041,-0.179916 -0.61383,-0.486832 -0.23283,-0.317499 -0.34925,-0.730248 -0.10583,-0.423332 -0.10583,-0.89958 0,-0.719665 0.254,-1.354663 0.26458,-0.645581 0.71966,-1.121829 0.45509,-0.476249 1.0795,-0.751415 0.62442,-0.275165 1.36525,-0.275165 0.1905,0 0.34925,0.02117 0.16933,0.02117 0.33866,0.0635 l 0.5715,-2.391826 1.64041,-0.253999 -1.397,5.810232 q -0.14816,0.603248 -0.0847,1.217079 0.0635,0.603248 0.24341,1.079497 L 127.75,86.273823 q -0.0635,-0.126999 -0.11642,-0.243416 -0.0529,-0.116416 -0.10583,-0.264582 -0.29634,0.243416 -0.66675,0.402165 -0.35983,0.15875 -0.80433,0.15875 z m 1.82032,-4.455569 q -0.0635,-0.01058 -0.11641,-0.02117 -0.0423,-0.01058 -0.0953,-0.01058 -0.0423,-0.01058 -0.11642,-0.01058 -0.0741,0 -0.1905,0 -0.37041,0 -0.68791,0.179917 -0.3175,0.169332 -0.55033,0.465665 -0.22225,0.296332 -0.34925,0.677331 -0.127,0.370415 -0.127,0.761997 0,0.507999 0.16933,0.804331 0.17992,0.285749 0.635,0.285749 0.24342,0 0.4445,-0.09525 0.20108,-0.09525 0.42333,-0.317499 0.0212,-0.264583 0.0635,-0.550332 0.0529,-0.296332 0.10583,-0.539748 z"
         style="font-style:normal;font-variant:normal;font-weight:normal;font-stretch:normal;font-family:Ubuntu;-inkscape-font-specification:Ubuntu;fill:#ffffff;fill-opacity:1;stroke-width:0.264583"
         id="path1486" />
      <path
         d="m 130.32009,83.998414 q 0,-0.677331 0.23283,-1.312329 0.24342,-0.634998 0.67733,-1.12183 0.43392,-0.497415 1.04775,-0.793748 0.62441,-0.306915 1.37583,-0.306915 0.37041,0 0.68791,0.105833 0.3175,0.105833 0.55033,0.306915 0.24342,0.201083 0.37042,0.497416 0.13758,0.285749 0.13758,0.656164 0,0.592665 -0.26458,1.005414 -0.26458,0.412748 -0.74083,0.677331 -0.46567,0.253999 -1.11125,0.370415 -0.64558,0.116417 -1.40758,0.116417 0.0741,0.444498 0.3175,0.634998 0.254,0.179916 0.79375,0.179916 0.33866,0 0.68791,-0.05292 0.34925,-0.0635 0.65617,-0.179916 l 0.11641,1.238246 q -0.29633,0.116416 -0.76199,0.211666 -0.45509,0.09525 -0.99483,0.09525 -0.65617,0 -1.11125,-0.179916 -0.4445,-0.1905 -0.73025,-0.507999 -0.27516,-0.317499 -0.40216,-0.740831 -0.127,-0.423332 -0.127,-0.89958 z m 3.07974,-2.285993 q -0.53975,0 -0.9525,0.391582 -0.40217,0.380999 -0.52916,1.015997 0.65616,-0.02117 1.05833,-0.105833 0.40216,-0.09525 0.62441,-0.222249 0.22225,-0.127 0.29633,-0.275166 0.0741,-0.148166 0.0741,-0.296332 0,-0.507999 -0.5715,-0.507999 z"
         style="font-style:normal;font-variant:normal;font-weight:normal;font-stretch:normal;font-family:Ubuntu;-inkscape-font-specification:Ubuntu;fill:#ffffff;fill-opacity:1;stroke-width:0.264583"
         id="path1488" />
      <path
         d="m 139.85878,81.96642 q -0.21166,-0.05292 -0.42333,-0.09525 -0.20108,-0.05292 -0.60325,-0.05292 -0.14816,0 -0.32808,0.03175 -0.17992,0.02117 -0.29633,0.05292 l -1.02658,4.275653 h -1.57691 l 1.26999,-5.270484 q 0.45508,-0.148166 1.016,-0.275165 0.5715,-0.137583 1.28058,-0.137583 0.26458,0 0.58208,0.05292 0.32808,0.04233 0.5715,0.148166 z"
         style="font-style:normal;font-variant:normal;font-weight:normal;font-stretch:normal;font-family:Ubuntu;-inkscape-font-specification:Ubuntu;fill:#ffffff;fill-opacity:1;stroke-width:0.264583"
         id="path1490" />
    </g>
  </g>
</svg>
