<svg xmlns="http://www.w3.org/2000/svg" width="282.557" height="50.78" viewBox="0 0 74.76 13.436">
    <g style="display:inline">
        <g aria-label="Blockly Trader" style="font-size:10.5833px;line-height:1.25;font-family:'One Slice';-inkscape-font-specification:'One Slice';fill:#fff;fill-opacity:1;stroke:#6565f6;stroke-width:3.265;stroke-linejoin:round;stroke-miterlimit:4;stroke-dasharray:none;stroke-opacity:.96;paint-order:stroke fill markers">
            <path d="M71.338 86.274q-.635 0-1.302-.053t-1.207-.17l1.694-7.09q.603-.117 1.26-.159.666-.042 1.216-.042.635 0 1.09.137.466.127.752.35.296.222.434.529.148.296.148.635 0 .233-.053.487-.042.254-.19.508-.138.243-.392.465-.244.222-.646.402.477.212.699.582.222.36.222.805 0 .508-.201.984-.201.466-.646.836-.444.36-1.153.582-.71.212-1.725.212zm-.148-3.302-.456 1.905q.17.032.424.053.264.01.487.01.317 0 .624-.042.318-.053.56-.18.255-.127.414-.35.158-.221.158-.57 0-.149-.063-.297-.053-.148-.18-.265-.127-.116-.339-.19-.2-.074-.486-.074zm.306-1.238h1.038q.635 0 .942-.276.317-.275.317-.656 0-.2-.095-.338-.085-.149-.233-.233-.148-.085-.339-.117-.19-.042-.391-.042-.223 0-.477.021-.254.01-.38.032zM78.05 86.284q-.752 0-1.186-.19-.423-.201-.613-.54-.18-.339-.18-.772.01-.445.127-.942l1.344-5.62 1.64-.254-1.471 6.096q-.042.19-.053.35 0 .158.064.285.063.116.211.19.159.074.434.096zM81.59 86.327q-.562 0-.974-.17-.413-.169-.688-.476-.265-.307-.402-.72-.138-.423-.138-.93 0-.636.201-1.27.212-.636.614-1.144.402-.508.984-.825.582-.328 1.334-.328.55 0 .963.169.423.17.688.476.275.307.412.73.138.413.138.921 0 .635-.201 1.27t-.593 1.143q-.391.508-.984.836-.582.318-1.355.318zm.782-4.53q-.349 0-.613.201-.265.201-.445.508t-.275.677q-.085.36-.085.688 0 .54.17.836.169.286.613.286.35 0 .614-.2.265-.202.445-.509t.264-.667q.096-.37.096-.698 0-.54-.17-.826-.17-.296-.614-.296zM85.465 83.956q0-.72.233-1.355t.667-1.11q.434-.477 1.047-.752.625-.275 1.387-.275.476 0 .846.095.381.085.688.233l-.54 1.227q-.211-.084-.444-.148-.222-.074-.55-.074-.794 0-1.249.54-.455.529-.455 1.45 0 .54.233.878.233.328.857.328.307 0 .593-.063.285-.064.508-.159l.116 1.26q-.296.116-.656.2-.35.096-.857.096-.657 0-1.112-.19-.455-.191-.751-.509-.296-.328-.434-.762-.127-.434-.127-.91zM92.656 82.623q.635-.508 1.196-1.038.56-.529.963-.973h1.778q-.593.656-1.238 1.29-.635.625-1.46 1.334.222.276.444.635.233.36.434.752.211.391.38.794.18.402.297.762h-1.757q-.095-.276-.243-.604-.138-.328-.318-.645-.169-.328-.36-.635-.19-.307-.38-.55l-.593 2.434h-1.566l1.905-7.96 1.64-.253zM98.472 86.284q-.751 0-1.185-.19-.424-.201-.614-.54-.18-.339-.18-.772.01-.445.127-.942l1.344-5.62 1.64-.254-1.47 6.096q-.043.19-.053.35 0 .158.063.285.064.116.212.19.158.074.434.096zM105.44 80.612q-.296.804-.603 1.503-.296.698-.624 1.333-.328.624-.677 1.196-.35.571-.741 1.132-.286.413-.593.836-.307.424-.688.762-.37.34-.836.55-.455.212-1.058.212-.37 0-.635-.074-.265-.063-.497-.18l.476-1.238q.211.085.38.127.17.053.414.053.37 0 .698-.243.339-.233.56-.635-.274-1.059-.507-2.37-.222-1.313-.307-2.964h1.62q.01.413.042.91.031.497.074 1.005.042.498.095.974t.116.857q.508-.762.89-1.693.39-.931.73-2.053zM114.738 78.844l-.339 1.387h-2.148l-1.429 5.948h-1.65l1.428-5.948h-2.148l.338-1.387zM117.452 81.966q-.212-.052-.423-.095-.201-.053-.604-.053-.148 0-.328.032-.18.021-.296.053l-1.027 4.276h-1.577l1.27-5.27q.456-.15 1.016-.276.572-.138 1.281-.138.265 0 .582.053.328.043.572.148zM122.756 83.776q-.148.603-.085 1.217.064.603.244 1.08l-1.408.2q-.064-.126-.116-.243-.053-.116-.106-.264-.297.243-.656.402-.36.159-.805.159-.529 0-.91-.18-.37-.19-.614-.498-.233-.317-.338-.73-.106-.423-.106-.9 0-.73.254-1.375.264-.646.72-1.122.465-.487 1.09-.762.624-.275 1.354-.275.095 0 .328.01.244.01.55.053.307.032.646.117.339.084.646.233zm-1.1-1.947q-.138-.021-.255-.032-.106-.01-.264-.01-.36 0-.678.18-.307.18-.54.476-.232.285-.37.666-.127.381-.127.794 0 .508.17.804.169.297.624.297.243 0 .434-.095.2-.096.423-.318.021-.265.064-.55.052-.297.105-.54zM126.057 86.327q-.53 0-.91-.18-.37-.18-.614-.487-.233-.318-.35-.73-.105-.424-.105-.9 0-.72.254-1.354.264-.646.72-1.122.454-.477 1.079-.752.624-.275 1.365-.275.19 0 .35.021.169.021.338.064l.571-2.392 1.64-.254-1.396 5.81q-.148.603-.085 1.217.064.603.244 1.08l-1.408.2q-.064-.126-.116-.243-.053-.116-.106-.264-.297.243-.667.402-.36.159-.804.159zm1.82-4.456q-.064-.01-.116-.021-.043-.01-.096-.01-.042-.011-.116-.011h-.19q-.371 0-.689.18-.317.17-.55.465-.222.297-.35.678-.126.37-.126.762 0 .508.17.804.18.286.634.286.244 0 .445-.095.2-.096.423-.318.021-.265.064-.55.052-.297.105-.54zM130.32 83.998q0-.677.233-1.312.243-.635.677-1.122.434-.497 1.048-.793.624-.307 1.376-.307.37 0 .688.105.317.106.55.307.243.201.37.498.138.286.138.656 0 .593-.265 1.005-.264.413-.74.678-.466.254-1.112.37-.645.116-1.407.116.074.445.317.635.254.18.794.18.339 0 .688-.053.35-.063.656-.18l.117 1.239q-.297.116-.762.211-.456.096-.995.096-.656 0-1.111-.18-.445-.19-.73-.508-.276-.318-.403-.741t-.127-.9zm3.08-2.286q-.54 0-.953.392-.402.381-.529 1.016.656-.021 1.058-.106.403-.095.625-.222.222-.127.296-.275.074-.148.074-.297 0-.508-.571-.508zM139.859 81.966q-.212-.052-.424-.095-.2-.053-.603-.053-.148 0-.328.032-.18.021-.296.053l-1.027 4.276h-1.577l1.27-5.27q.455-.15 1.016-.276.572-.138 1.28-.138.265 0 .583.053.328.043.571.148z" style="font-style:normal;font-variant:normal;font-weight:400;font-stretch:normal;font-family:Ubuntu;-inkscape-font-specification:Ubuntu;fill:#fff;fill-opacity:1;stroke:#6565f6;stroke-width:3.265;stroke-linejoin:round;stroke-miterlimit:4;stroke-dasharray:none;stroke-opacity:.96;paint-order:stroke fill markers" transform="translate(-67.197 -76.333)"/>
        </g>
    </g>
    <g style="display:inline">
        <g aria-label="Blockly Trader" style="font-size:10.5833px;line-height:1.25;font-family:'One Slice';-inkscape-font-specification:'One Slice';fill:#fff;fill-opacity:1;stroke-width:.264583">
            <path d="M71.338 86.274q-.635 0-1.302-.053t-1.207-.17l1.694-7.09q.603-.117 1.26-.159.666-.042 1.216-.042.635 0 1.09.137.466.127.752.35.296.222.434.529.148.296.148.635 0 .233-.053.487-.042.254-.19.508-.138.243-.392.465-.244.222-.646.402.477.212.699.582.222.36.222.805 0 .508-.201.984-.201.466-.646.836-.444.36-1.153.582-.71.212-1.725.212zm-.148-3.302-.456 1.905q.17.032.424.053.264.01.487.01.317 0 .624-.042.318-.053.56-.18.255-.127.414-.35.158-.221.158-.57 0-.149-.063-.297-.053-.148-.18-.265-.127-.116-.339-.19-.2-.074-.486-.074zm.306-1.238h1.038q.635 0 .942-.276.317-.275.317-.656 0-.2-.095-.338-.085-.149-.233-.233-.148-.085-.339-.117-.19-.042-.391-.042-.223 0-.477.021-.254.01-.38.032zM78.05 86.284q-.752 0-1.186-.19-.423-.201-.613-.54-.18-.339-.18-.772.01-.445.127-.942l1.344-5.62 1.64-.254-1.471 6.096q-.042.19-.053.35 0 .158.064.285.063.116.211.19.159.074.434.096zM81.59 86.327q-.562 0-.974-.17-.413-.169-.688-.476-.265-.307-.402-.72-.138-.423-.138-.93 0-.636.201-1.27.212-.636.614-1.144.402-.508.984-.825.582-.328 1.334-.328.55 0 .963.169.423.17.688.476.275.307.412.73.138.413.138.921 0 .635-.201 1.27t-.593 1.143q-.391.508-.984.836-.582.318-1.355.318zm.782-4.53q-.349 0-.613.201-.265.201-.445.508t-.275.677q-.085.36-.085.688 0 .54.17.836.169.286.613.286.35 0 .614-.2.265-.202.445-.509t.264-.667q.096-.37.096-.698 0-.54-.17-.826-.17-.296-.614-.296zM85.465 83.956q0-.72.233-1.355t.667-1.11q.434-.477 1.047-.752.625-.275 1.387-.275.476 0 .846.095.381.085.688.233l-.54 1.227q-.211-.084-.444-.148-.222-.074-.55-.074-.794 0-1.249.54-.455.529-.455 1.45 0 .54.233.878.233.328.857.328.307 0 .593-.063.285-.064.508-.159l.116 1.26q-.296.116-.656.2-.35.096-.857.096-.657 0-1.112-.19-.455-.191-.751-.509-.296-.328-.434-.762-.127-.434-.127-.91zM92.656 82.623q.635-.508 1.196-1.038.56-.529.963-.973h1.778q-.593.656-1.238 1.29-.635.625-1.46 1.334.222.276.444.635.233.36.434.752.211.391.38.794.18.402.297.762h-1.757q-.095-.276-.243-.604-.138-.328-.318-.645-.169-.328-.36-.635-.19-.307-.38-.55l-.593 2.434h-1.566l1.905-7.96 1.64-.253zM98.472 86.284q-.751 0-1.185-.19-.424-.201-.614-.54-.18-.339-.18-.772.01-.445.127-.942l1.344-5.62 1.64-.254-1.47 6.096q-.043.19-.053.35 0 .158.063.285.064.116.212.19.158.074.434.096zM105.44 80.612q-.296.804-.603 1.503-.296.698-.624 1.333-.328.624-.677 1.196-.35.571-.741 1.132-.286.413-.593.836-.307.424-.688.762-.37.34-.836.55-.455.212-1.058.212-.37 0-.635-.074-.265-.063-.497-.18l.476-1.238q.211.085.38.127.17.053.414.053.37 0 .698-.243.339-.233.56-.635-.274-1.059-.507-2.37-.222-1.313-.307-2.964h1.62q.01.413.042.91.031.497.074 1.005.042.498.095.974t.116.857q.508-.762.89-1.693.39-.931.73-2.053zM114.738 78.844l-.339 1.387h-2.148l-1.429 5.948h-1.65l1.428-5.948h-2.148l.338-1.387zM117.452 81.966q-.212-.052-.423-.095-.201-.053-.604-.053-.148 0-.328.032-.18.021-.296.053l-1.027 4.276h-1.577l1.27-5.27q.456-.15 1.016-.276.572-.138 1.281-.138.265 0 .582.053.328.043.572.148zM122.756 83.776q-.148.603-.085 1.217.064.603.244 1.08l-1.408.2q-.064-.126-.116-.243-.053-.116-.106-.264-.297.243-.656.402-.36.159-.805.159-.529 0-.91-.18-.37-.19-.614-.498-.233-.317-.338-.73-.106-.423-.106-.9 0-.73.254-1.375.264-.646.72-1.122.465-.487 1.09-.762.624-.275 1.354-.275.095 0 .328.01.244.01.55.053.307.032.646.117.339.084.646.233zm-1.1-1.947q-.138-.021-.255-.032-.106-.01-.264-.01-.36 0-.678.18-.307.18-.54.476-.232.285-.37.666-.127.381-.127.794 0 .508.17.804.169.297.624.297.243 0 .434-.095.2-.096.423-.318.021-.265.064-.55.052-.297.105-.54zM126.057 86.327q-.53 0-.91-.18-.37-.18-.614-.487-.233-.318-.35-.73-.105-.424-.105-.9 0-.72.254-1.354.264-.646.72-1.122.454-.477 1.079-.752.624-.275 1.365-.275.19 0 .35.021.169.021.338.064l.571-2.392 1.64-.254-1.396 5.81q-.148.603-.085 1.217.064.603.244 1.08l-1.408.2q-.064-.126-.116-.243-.053-.116-.106-.264-.297.243-.667.402-.36.159-.804.159zm1.82-4.456q-.064-.01-.116-.021-.043-.01-.096-.01-.042-.011-.116-.011h-.19q-.371 0-.689.18-.317.17-.55.465-.222.297-.35.678-.126.37-.126.762 0 .508.17.804.18.286.634.286.244 0 .445-.095.2-.096.423-.318.021-.265.064-.55.052-.297.105-.54zM130.32 83.998q0-.677.233-1.312.243-.635.677-1.122.434-.497 1.048-.793.624-.307 1.376-.307.37 0 .688.105.317.106.55.307.243.201.37.498.138.286.138.656 0 .593-.265 1.005-.264.413-.74.678-.466.254-1.112.37-.645.116-1.407.116.074.445.317.635.254.18.794.18.339 0 .688-.053.35-.063.656-.18l.117 1.239q-.297.116-.762.211-.456.096-.995.096-.656 0-1.111-.18-.445-.19-.73-.508-.276-.318-.403-.741t-.127-.9zm3.08-2.286q-.54 0-.953.392-.402.381-.529 1.016.656-.021 1.058-.106.403-.095.625-.222.222-.127.296-.275.074-.148.074-.297 0-.508-.571-.508zM139.859 81.966q-.212-.052-.424-.095-.2-.053-.603-.053-.148 0-.328.032-.18.021-.296.053l-1.027 4.276h-1.577l1.27-5.27q.455-.15 1.016-.276.572-.138 1.28-.138.265 0 .583.053.328.043.571.148z" style="font-style:normal;font-variant:normal;font-weight:400;font-stretch:normal;font-family:Ubuntu;-inkscape-font-specification:Ubuntu;fill:#fff;fill-opacity:1;stroke-width:.264583" transform="translate(-67.197 -76.333)"/>
        </g>
    </g>
</svg>
